<svg height="512" viewBox="0 0 512 512" width="512" xmlns="http://www.w3.org/2000/svg" xmlns:xlink="http://www.w3.org/1999/xlink"><linearGradient id="New_Gradient_Swatch_22" gradientUnits="userSpaceOnUse" x1="11.515" x2="500.485" y1="492.485" y2="3.515"><stop offset=".011" stop-color="#dcdce3"/><stop offset="1" stop-color="#ededf1"/></linearGradient><linearGradient id="New_Gradient_Swatch_3" gradientUnits="userSpaceOnUse" x1="108.757" x2="403.243" y1="200.757" y2="-93.728"><stop offset=".011" stop-color="#606082"/><stop offset="1" stop-color="#83839e"/></linearGradient><linearGradient id="New_Gradient_Swatch_5" gradientUnits="userSpaceOnUse" x1="358.642" x2="401.068" y1="417.135" y2="374.708"><stop offset=".011" stop-color="#f8c73f"/><stop offset="1" stop-color="#fada7f"/></linearGradient><linearGradient id="New_Gradient_Swatch_13" gradientTransform="matrix(.707 -.707 .707 .707 -94.725 251.314)" gradientUnits="userSpaceOnUse" x1="165.443" x2="301.208" y1="157.95" y2="293.714"><stop offset="0" stop-color="#d46669"/><stop offset="1" stop-color="#dd888a"/></linearGradient><g id="_15-error" data-name="15-error"><g id="gradient"><rect fill="url(#New_Gradient_Swatch_22)" height="488" rx="12" width="504" x="4" y="4"/><path d="m496 4h-480a12 12 0 0 0 -12 12v80h504v-80a12 12 0 0 0 -12-12z" fill="url(#New_Gradient_Swatch_3)"/><circle cx="448" cy="52" fill="#d97779" r="12"/><circle cx="399.261" cy="52" fill="#f9cd55" r="12"/><circle cx="353.196" cy="52" fill="#80d1cb" r="12"/><path d="m399.654 427.721a11.964 11.964 0 0 1 -8.485-3.515l-101.823-101.824a12 12 0 0 1 16.97-16.97l101.824 101.823a12 12 0 0 1 -8.486 20.486z" fill="#b8b8c7"/><path d="m426.523 400.164-50.911-50.912a30 30 0 1 0 -42.425 42.427l50.913 50.912a30 30 0 1 0 42.425-42.427z" fill="url(#New_Gradient_Swatch_5)"/><circle cx="229.949" cy="246.015" fill="url(#New_Gradient_Swatch_13)" r="96"/><path d="m229.948 354.015a107.291 107.291 0 0 1 -76.367-31.633 108 108 0 1 1 76.367 31.633zm0-191.961a83.961 83.961 0 0 0 -59.4 143.358 84 84 0 1 0 59.4-143.358z" fill="#a6a6b9"/><path d="m227.605 183.672a36.041 36.041 0 0 0 -36 36 12 12 0 0 0 24 0 12 12 0 1 1 12 12 12 12 0 0 0 -12 12v16a12 12 0 0 0 24 0v-6.056a36 36 0 0 0 -12-69.944z" fill="#faeeee"/><circle cx="227.605" cy="295.672" fill="#faeeee" r="12"/><g fill="#cacad5"><path d="m456 164h-104a12 12 0 0 1 0-24h104a12 12 0 0 1 0 24z"/><path d="m456 212h-80a12 12 0 0 1 0-24h80a12 12 0 0 1 0 24z"/><path d="m456 260h-64a12 12 0 0 1 0-24h64a12 12 0 0 1 0 24z"/><path d="m296 460h-240a12 12 0 0 1 0-24h240a12 12 0 0 1 0 24z"/><path d="m200 412h-144a12 12 0 0 1 0-24h144a12 12 0 0 1 0 24z"/><path d="m120 364h-64a12 12 0 0 1 0-24h64a12 12 0 0 1 0 24z"/></g></g></g></svg>